<?xml version="1.0" encoding="utf-8"?>
<!-- Generator: Adobe Illustrator 18.0.0, SVG Export Plug-In . SVG Version: 6.00 Build 0)  -->
<!DOCTYPE svg PUBLIC "-//W3C//DTD SVG 1.1//EN" "http://www.w3.org/Graphics/SVG/1.1/DTD/svg11.dtd">
<svg version="1.1" id="Layer_1" xmlns="http://www.w3.org/2000/svg" xmlns:xlink="http://www.w3.org/1999/xlink" x="0px" y="0px"
	 viewBox="0 0 3461.1 1702.8" enable-background="new 0 0 3461.1 1702.8" xml:space="preserve">
<g>
	<path d="M1162.7,946h-30.4l-3.8-3.8V831.9c0-22.8-7.6-45.7-38-45.7c-30.4,0-49.5,15.2-49.5,60.9v95.1l-3.8,3.8h-30.4l-3.8-3.8
		V683.5l3.8-3.8h30.4l3.8,3.8v91.3h3.8c0,0,15.2-22.8,49.5-22.8c57.1,0,72.3,38,72.3,79.9v110.3L1162.7,946z"/>
	<path d="M1284.4,843.3l-3.8-3.8v-60.9h-3.8l-41.8,41.8h-3.8l-3.8-3.8v-3.8l41.8-41.8v-3.8h-60.9l-3.8-3.8v-3.8l3.8-3.8h60.9V752
		l-41.8-41.8v-3.8l3.8-3.8h3.8l41.8,41.8h3.8v-60.9l3.8-3.8h3.8l3.8,3.8v60.9h3.8l41.8-41.8h3.8l3.8,3.8v3.8l-41.8,41.8v3.8h60.9
		l3.8,3.8v3.8l-3.8,3.8h-60.9v3.8l41.8,41.8v3.8l-3.8,3.8h-3.8l-41.8-41.8h-3.8v60.9l-3.8,3.8H1284.4z"/>
	<path d="M1486.1,843.3l-3.8-3.8v-60.9h-3.8l-41.8,41.8h-3.8l-3.8-3.8v-3.8l41.8-41.8v-3.8H1410l-3.8-3.8v-3.8l3.8-3.8h60.9V752
		l-41.8-41.8v-3.8l3.8-3.8h3.8l41.8,41.8h3.8v-60.9l3.8-3.8h3.8l3.8,3.8v60.9h3.8l41.8-41.8h3.8l3.8,3.8v3.8l-41.8,41.8v3.8h60.9
		l3.8,3.8v3.8l-3.8,3.8h-60.9v3.8l41.8,41.8v3.8l-3.8,3.8h-3.8l-41.8-41.8h-3.8v60.9l-3.8,3.8H1486.1z"/>
	<path d="M1687.7,843.3l-3.8-3.8v-60.9h-3.8l-41.8,41.8h-3.8l-3.8-3.8v-3.8l41.8-41.8v-3.8h-60.9l-3.8-3.8v-3.8l3.8-3.8h60.9V752
		l-41.8-41.8v-3.8l3.8-3.8h3.8l41.8,41.8h3.8v-60.9l3.8-3.8h3.8l3.8,3.8v60.9h3.8l41.8-41.8h3.8l3.8,3.8v3.8l-41.8,41.8v3.8h60.9
		l3.8,3.8v3.8l-3.8,3.8h-60.9v3.8l41.8,41.8v3.8l-3.8,3.8h-3.8l-41.8-41.8h-3.8v60.9l-3.8,3.8H1687.7z"/>
	<path d="M1908.4,949.8c-34.2,0-49.5-22.8-49.5-22.8h-3.8v91.3l-3.8,3.8h-30.4l-3.8-3.8V759.6l3.8-3.8h26.6l3.8,3.8l3.8,15.2h3.8
		c0,0,15.2-22.8,49.5-22.8c53.3,0,83.7,41.8,83.7,98.9S1961.6,949.8,1908.4,949.8z M1904.6,786.2c-30.4,0-49.5,19-49.5,64.7
		s19,64.7,49.5,64.7c30.4,0,49.5-22.8,49.5-64.7S1935,786.2,1904.6,786.2z"/>
	<path d="M2170.9,946h-26.6l-3.8-3.8l-3.8-15.2h-3.8c0,0-15.2,22.8-53.3,22.8c-41.8,0-64.7-22.8-64.7-60.9
		c0-41.8,34.2-60.9,83.7-60.9c19,0,34.2,3.8,34.2,3.8l3.8-3.8v-7.6c0-26.6-11.4-34.2-38-34.2c-26.6,0-38,7.6-38,22.8l-3.8,3.8h-30.4
		l-3.8-3.8c0-26.6,19-57.1,76.1-57.1c57.1,0,76.1,26.6,76.1,83.7v106.5L2170.9,946z M2136.6,866.1l-3.8-3.8c0,0-11.4-3.8-30.4-3.8
		c-34.2,0-49.5,11.4-49.5,30.4c0,19,11.4,26.6,34.2,26.6c30.4,0,49.5-15.2,49.5-38V866.1z"/>
	<path d="M2281.2,949.8c-49.5,0-76.1-22.8-76.1-64.7l3.8-3.8h30.4l3.8,3.8c0,19,11.4,30.4,38,30.4s38-7.6,38-22.8
		c0-19-11.4-22.8-49.5-30.4c-38-7.6-60.9-22.8-60.9-57.1c0-26.6,19-53.3,72.3-53.3c41.8,0,72.3,19,72.3,57.1l-3.8,3.8h-30.4
		l-3.8-3.8c0-11.4-7.6-22.8-34.2-22.8c-19,0-34.2,3.8-34.2,19c0,19,15.2,22.8,53.3,30.4c38,7.6,57.1,22.8,57.1,57.1
		C2357.3,923.2,2334.5,949.8,2281.2,949.8z"/>
	<path d="M2456.2,949.8c-49.5,0-76.1-22.8-76.1-64.7l3.8-3.8h30.4l3.8,3.8c0,19,11.4,30.4,38,30.4c26.6,0,38-7.6,38-22.8
		c0-19-11.4-22.8-49.5-30.4c-38-7.6-60.9-22.8-60.9-57.1c0-26.6,19-53.3,72.3-53.3c41.8,0,72.3,19,72.3,57.1l-3.8,3.8h-30.4
		l-3.8-3.8c0-11.4-7.6-22.8-34.2-22.8c-19,0-34.2,3.8-34.2,19c0,19,15.2,22.8,53.3,30.4c38,7.6,57.1,22.8,57.1,57.1
		C2532.3,923.2,2509.5,949.8,2456.2,949.8z"/>
</g>
</svg>
